<svg xmlns="http://www.w3.org/2000/svg" width="256" height="128" viewBox="0 0 256 128" shape-rendering="crispEdges">
  <rect width="256" height="128" fill="#1f2226" />

  <!-- tile 1: floor (0,0) -->
  <g transform="translate(0,0)">
    <rect width="32" height="32" fill="#4a505b" />
    <path d="M0 16 H32" stroke="#545c69" stroke-width="1" />
    <path d="M16 0 V32" stroke="#545c69" stroke-width="1" />
    <path d="M0 0 H32" stroke="#3c404a" stroke-width="1" />
  </g>

  <!-- tile 2: wall (32,0) -->
  <g transform="translate(32,0)">
    <rect width="32" height="32" fill="#2c3038" />
    <rect x="0" y="0" width="32" height="6" fill="#3a3f49" />
    <rect x="0" y="26" width="32" height="6" fill="#1f2228" />
    <rect x="6" y="10" width="20" height="12" fill="#343a44" />
  </g>

  <!-- tile 3: desk (64,0) -->
  <g transform="translate(64,0)">
    <rect width="32" height="32" fill="#434a55" />
    <rect x="4" y="8" width="24" height="14" fill="#7c8ea3" />
    <rect x="6" y="10" width="20" height="10" fill="#9bb0c9" />
    <rect x="12" y="22" width="8" height="4" fill="#2a2f36" />
  </g>

  <!-- tile 4: chair (96,0) -->
  <g transform="translate(96,0)">
    <rect width="32" height="32" fill="#434a55" />
    <rect x="12" y="12" width="8" height="8" fill="#2b2f37" />
    <rect x="10" y="20" width="12" height="5" fill="#1d2027" />
    <rect x="14" y="8" width="4" height="4" fill="#3b404b" />
  </g>

  <!-- tile 5: plant (128,0) -->
  <g transform="translate(128,0)">
    <rect width="32" height="32" fill="#434a55" />
    <rect x="13" y="18" width="6" height="8" fill="#7b5a3a" />
    <circle cx="16" cy="12" r="7" fill="#5fbf6a" />
    <circle cx="12" cy="10" r="4" fill="#78d07f" />
  </g>

  <!-- tile 6: divider (160,0) -->
  <g transform="translate(160,0)">
    <rect width="32" height="32" fill="#434a55" />
    <rect x="4" y="4" width="24" height="24" fill="#2a2f39" />
    <rect x="6" y="6" width="20" height="20" fill="#3d4451" />
  </g>

  <!-- tile 7: meeting table (192,0) -->
  <g transform="translate(192,0)">
    <rect width="32" height="32" fill="#434a55" />
    <rect x="6" y="8" width="20" height="16" fill="#98704d" />
    <rect x="8" y="10" width="16" height="12" fill="#b88a60" />
  </g>

  <!-- tile 8: carpet (224,0) -->
  <g transform="translate(224,0)">
    <rect width="32" height="32" fill="#4b4a67" />
    <rect x="2" y="2" width="28" height="28" fill="#585580" />
  </g>
</svg>
