<svg xmlns="http://www.w3.org/2000/svg" width="16" height="16" viewBox="0 0 16 16" shape-rendering="crispEdges">
  <rect width="16" height="16" fill="none" />
  <!-- big head (pokemon-style) -->
  <rect x="4" y="1" width="8" height="7" fill="#f1c27d" />
  <rect x="4" y="1" width="8" height="2" fill="#2b1f1a" />
  <rect x="5" y="3" width="2" height="1" fill="#ffffff" />
  <rect x="9" y="3" width="2" height="1" fill="#ffffff" />
  <rect x="6" y="4" width="1" height="1" fill="#2b1f1a" />
  <rect x="9" y="4" width="1" height="1" fill="#2b1f1a" />
  <!-- suit body -->
  <rect x="5" y="8" width="6" height="5" fill="#2a2d33" />
  <rect x="6" y="8" width="4" height="2" fill="#e8e7e2" />
  <rect x="7" y="8" width="2" height="3" fill="#c63d3d" />
  <!-- arms -->
  <rect x="4" y="9" width="1" height="3" fill="#2a2d33" />
  <rect x="11" y="9" width="1" height="3" fill="#2a2d33" />
  <!-- legs -->
  <rect x="5" y="13" width="2" height="2" fill="#1e2026" />
  <rect x="9" y="13" width="2" height="2" fill="#1e2026" />
  <!-- shoes -->
  <rect x="5" y="15" width="2" height="1" fill="#15171b" />
  <rect x="9" y="15" width="2" height="1" fill="#15171b" />
</svg>
